HIERARCHY
ROOT Hips
{
	OFFSET 0.00000 0.00000 0.00000
	CHANNELS 6 Xposition Yposition Zposition Zrotation Yrotation Xrotation 
	JOINT LHipJoint
	{
		OFFSET 0 0 0
		CHANNELS 3 Zrotation Yrotation Xrotation
		JOINT LeftUpLeg
		{
			OFFSET 1.54859 -1.61379 0.86856
			CHANNELS 3 Zrotation Yrotation Xrotation
			JOINT LeftLeg
			{
				OFFSET 2.25087 -6.18423 0.00000
				CHANNELS 3 Zrotation Yrotation Xrotation
				JOINT LeftFoot
				{
					OFFSET 2.40328 -6.60297 0.00000
					CHANNELS 3 Zrotation Yrotation Xrotation
					JOINT LeftToeBase
					{
						OFFSET 0.17435 -0.47901 2.02453
						CHANNELS 3 Zrotation Yrotation Xrotation
						End Site
						{
							OFFSET 0.00000 -0.00000 1.04844
						}
					}
				}
			}
		}
	}
	JOINT RHipJoint
	{
		OFFSET 0 0 0
		CHANNELS 3 Zrotation Yrotation Xrotation
		JOINT RightUpLeg
		{
			OFFSET -1.54669 -1.61379 0.86856
			CHANNELS 3 Zrotation Yrotation Xrotation
			JOINT RightLeg
			{
				OFFSET -2.28132 -6.26789 0.00000
				CHANNELS 3 Zrotation Yrotation Xrotation
				JOINT RightFoot
				{
					OFFSET -2.51636 -6.91365 0.00000
					CHANNELS 3 Zrotation Yrotation Xrotation
					JOINT RightToeBase
					{
						OFFSET -0.15124 -0.41552 2.21090
						CHANNELS 3 Zrotation Yrotation Xrotation
						End Site
						{
							OFFSET -0.00000 -0.00000 1.13399
						}
					}
				}
			}
		}
	}
	JOINT LowerBack
	{
		OFFSET 0 0 0
		CHANNELS 3 Zrotation Yrotation Xrotation
		JOINT Spine
		{
			OFFSET -0.04287 2.26161 -0.25690
			CHANNELS 3 Zrotation Yrotation Xrotation
			JOINT Spine1
			{
				OFFSET 0.02248 2.28395 -0.10140
				CHANNELS 3 Zrotation Yrotation Xrotation
				JOINT Neck
				{
					OFFSET 0 0 0
					CHANNELS 3 Zrotation Yrotation Xrotation
					JOINT Neck1
					{
						OFFSET -0.11644 1.38496 0.11345
						CHANNELS 3 Zrotation Yrotation Xrotation
						JOINT Head
						{
							OFFSET 0.29383 1.36600 0.06642
							CHANNELS 3 Zrotation Yrotation Xrotation
							End Site
							{
								OFFSET 0.11075 1.41395 -0.00294
							}
						}
					}
				}
				JOINT LeftShoulder
				{
					OFFSET 0 0 0
					CHANNELS 3 Zrotation Yrotation Xrotation
					JOINT LeftArm
					{
						OFFSET 3.51628 0.59542 -0.30346
						CHANNELS 3 Zrotation Yrotation Xrotation
						JOINT LeftForeArm
						{
							OFFSET 4.76405 -0.00000 0.00000
							CHANNELS 3 Zrotation Yrotation Xrotation
							JOINT LeftHand
							{
								OFFSET 3.13759 -0.00000 -0.00000
								CHANNELS 3 Zrotation Yrotation Xrotation
								JOINT LeftFingerBase
								{
									OFFSET 0 0 0
									CHANNELS 3 Zrotation Yrotation Xrotation
									JOINT LeftHandIndex1
									{
										OFFSET 0.73226 -0.00000 -0.00000
										CHANNELS 3 Zrotation Yrotation Xrotation
										End Site
										{
											OFFSET 0.59037 -0.00000 -0.00000
										}
									}
								}
								JOINT LThumb
								{
									OFFSET 0 0 0
									CHANNELS 3 Zrotation Yrotation Xrotation
									End Site
									{
										OFFSET 0.59938 -0.00000 0.59938
									}
								}
							}
						}
					}
				}
				JOINT RightShoulder
				{
					OFFSET 0 0 0
					CHANNELS 3 Zrotation Yrotation Xrotation
					JOINT RightArm
					{
						OFFSET -3.30990 0.84213 -0.36430
						CHANNELS 3 Zrotation Yrotation Xrotation
						JOINT RightForeArm
						{
							OFFSET -5.10161 -0.00000 -0.00000
							CHANNELS 3 Zrotation Yrotation Xrotation
							JOINT RightHand
							{
								OFFSET -3.23267 -0.00000 -0.00000
								CHANNELS 3 Zrotation Yrotation Xrotation
								JOINT RightFingerBase
								{
									OFFSET 0 0 0
									CHANNELS 3 Zrotation Yrotation Xrotation
									JOINT RightHandIndex1
									{
										OFFSET -0.70200 -0.00000 -0.00000
										CHANNELS 3 Zrotation Yrotation Xrotation
										End Site
										{
											OFFSET -0.56597 -0.00000 -0.00000
										}
									}
								}
								JOINT RThumb
								{
									OFFSET 0 0 0
									CHANNELS 3 Zrotation Yrotation Xrotation
									End Site
									{
										OFFSET -0.57461 -0.00000 0.57461
									}
								}
							}
						}
					}
				}
			}
		}
	}
}
MOTION
Frames: 15
Frame Time: .0083333
3.3760 13.6319 -4.8987 -0.2700 -29.5611 12.2699 0.0000 0.0000 0.0000 0.4858 12.7564 -37.1911 11.8037 18.3064 65.3652 2.0795 -6.7950 -25.9718 7.4959 -15.7357 -50.7260 0.0000 0.0000 0.0000 -3.3614 -5.8339 -66.3688 -8.4013 -16.4066 53.9955 0.0727 -10.7606 -14.1635 -3.0702 10.8079 -31.6346 -5.4976 0.5112 42.4552 6.6359 -1.4871 13.0053 10.6462 -1.3680 -5.4562 -15.3304 -10.2644 -4.6971 36.0549 -8.1977 -34.2144 16.8929 -6.6016 -6.2387 -0.0000 0.0000 0.0000 -70.3439 -10.7126 -4.8574 37.0029 -46.1905 -16.2421 -0.0000 0.0000 -51.4691 29.4617 13.3192 7.4147 -7.1250 0.0000 -0.0000 1.9667 45.1820 0.0088 -0.0000 0.0000 0.0000 73.9179 10.1135 -11.3945 -100.8896 59.5471 -69.4163 0.0000 -0.0000 -38.2937 -59.8186 42.3736 -49.2082 7.1250 -0.0000 -0.0000 -10.3601 30.4271 -14.3205
2.9402 13.6141 -4.6689 -0.0649 -29.7134 11.8504 0.0000 0.0000 0.0000 1.7523 13.8253 -34.0209 11.1679 18.0163 63.3256 1.8845 -7.0459 -24.6608 7.6336 -15.8430 -51.2319 0.0000 0.0000 0.0000 -3.7104 -5.6603 -65.7460 -7.4644 -15.7108 50.6098 0.0571 -10.9202 -14.6642 -3.3620 11.2593 -33.1593 -5.2125 -0.1705 42.0884 6.6298 -2.1848 12.9601 10.7550 -1.6999 -5.2718 -15.1796 -9.8090 -4.6544 34.7838 -7.8097 -33.7843 16.2737 -6.2582 -6.3850 -0.0000 0.0000 0.0000 -70.8327 -9.9642 -5.1460 34.9844 -44.8010 -14.8024 -0.0000 0.0000 -49.2810 29.3288 12.8915 7.1447 -7.1250 0.0000 -0.0000 1.8783 44.6812 -0.0148 -0.0000 0.0000 0.0000 74.6078 9.9723 -9.5275 -99.4677 59.6586 -68.1899 0.0000 -0.0000 -37.2776 -58.8956 42.3826 -48.1694 7.1250 -0.0000 -0.0000 -9.9408 29.8308 -13.6945
2.4977 13.5930 -4.4348 0.1917 -29.9038 11.5785 0.0000 0.0000 0.0000 2.9874 14.4983 -30.8524 10.4958 17.6794 61.1331 1.6821 -7.3025 -23.2452 7.7282 -15.9156 -51.5776 0.0000 0.0000 0.0000 -3.6689 -5.8016 -65.5425 -6.7660 -15.1316 47.9836 0.1432 -11.1365 -13.5345 -3.1120 10.8742 -31.8568 -4.4909 -0.7227 41.3065 6.7119 -2.5488 13.0010 10.5773 -1.8709 -4.9505 -15.6439 -9.8657 -4.7009 33.8271 -8.0892 -33.7074 15.8588 -6.2224 -6.3401 0.0000 -0.0000 0.0000 -71.8114 -9.8994 -4.8729 33.1704 -43.4606 -13.5391 -0.0000 0.0000 -47.0734 29.0124 12.6955 6.9491 -7.1250 0.0000 -0.0000 1.6000 44.4193 -0.0229 0.0000 -0.0000 0.0000 74.7993 10.0751 -8.7244 -96.9937 59.8144 -66.0529 0.0000 -0.0000 -36.1066 -58.6264 42.4568 -47.9079 7.1250 -0.0000 -0.0000 -9.7839 29.7256 -13.4680
2.0460 13.5751 -4.1964 0.4191 -30.0081 11.3541 0.0000 0.0000 0.0000 4.3063 14.7493 -27.6212 9.8016 17.2968 58.8231 1.4654 -7.3819 -21.6586 7.9419 -16.0764 -52.3532 0.0000 0.0000 0.0000 -3.0989 -6.3493 -65.5277 -6.2892 -14.7028 46.1315 0.1380 -10.8369 -13.1251 -2.6440 10.0952 -29.2856 -3.7139 -1.3811 40.4105 6.5069 -3.0391 12.8177 10.0961 -2.0637 -4.8227 -16.6711 -9.6946 -4.7039 33.5837 -8.0107 -32.8312 15.8242 -5.9693 -6.0222 0.0000 -0.0000 0.0000 -72.5233 -9.0129 -4.7040 31.9670 -42.5208 -12.7185 -0.0000 0.0000 -45.5523 28.1665 12.3778 6.5475 -7.1250 0.0000 -0.0000 0.8450 43.9570 -0.0218 0.0000 -0.0000 0.0000 75.4975 9.9575 -7.6580 -93.8229 59.9447 -63.3101 0.0000 -0.0000 -34.8087 -58.6357 42.6124 -48.0026 7.1250 -0.0000 -0.0000 -9.7121 29.8755 -13.3764
1.5840 13.5719 -3.9557 0.7048 -30.1287 11.0325 0.0000 0.0000 0.0000 5.6046 14.6646 -24.2133 9.1015 16.8726 56.4405 1.1772 -7.4392 -19.3859 8.1013 -16.1933 -52.9268 0.0000 0.0000 0.0000 -2.3104 -6.9257 -65.3827 -5.9980 -14.4264 44.9737 0.1353 -10.6947 -12.9347 -2.1656 9.2029 -26.4321 -2.9714 -2.0129 39.4104 6.1737 -3.5380 12.6547 9.4833 -2.2592 -4.6429 -15.8963 -9.4681 -4.1972 32.2164 -7.9672 -32.5111 15.0656 -5.8923 -6.2327 -0.0000 -0.0000 0.0000 -73.2434 -7.9498 -4.8336 31.1181 -41.8327 -12.1485 -0.0000 0.0000 -44.6870 27.1635 11.9066 6.0432 -7.1250 0.0000 -0.0000 -0.0303 43.3125 0.0013 -0.0000 -0.0000 0.0000 76.3560 9.9922 -6.6217 -89.9978 60.0000 -59.9981 0.0000 -0.0000 -33.4927 -58.1894 42.2831 -47.3255 7.1250 -0.0000 -0.0000 -9.6715 29.2839 -13.2836
1.1099 13.5728 -3.7152 1.2868 -30.3836 10.5041 0.0000 0.0000 0.0000 6.6446 14.2265 -20.6376 8.4258 16.4237 54.0824 0.8101 -7.6558 -16.1379 7.8426 -16.0023 -51.9938 0.0000 0.0000 0.0000 -1.7401 -7.3421 -65.1089 -5.8826 -14.3136 44.5086 0.1777 -10.9934 -12.6276 -2.0574 8.9847 -25.7475 -2.7172 -2.4804 38.1501 5.8888 -4.0290 12.6819 9.1524 -2.4757 -4.2930 -15.5878 -9.1859 -3.8160 30.9582 -7.8453 -32.0563 14.4458 -5.7182 -6.3440 0.0000 0.0000 0.0000 -74.4153 -6.8733 -5.3637 30.6512 -41.4451 -11.8383 -0.0000 0.0000 -44.4933 26.5611 11.7455 5.8107 -7.1250 0.0000 -0.0000 -0.5629 43.0652 0.0269 0.0000 0.0000 0.0000 76.8326 10.4357 -5.6112 -85.3280 59.9174 -55.9550 0.0000 -0.0000 -32.5129 -57.6740 41.6583 -46.4075 7.1250 -0.0000 -0.0000 -9.7350 28.3671 -13.3137
0.6275 13.5711 -3.4735 2.1970 -30.7049 9.7078 0.0000 0.0000 0.0000 7.3167 13.3930 -17.0458 7.7996 15.9698 51.8374 0.4701 -6.8868 -12.4057 7.4565 -15.7045 -50.5804 0.0000 0.0000 0.0000 -1.4306 -7.7540 -64.6321 -5.9316 -14.3618 44.7067 0.1912 -11.1683 -12.6747 -2.1444 9.1606 -26.2989 -2.7910 -2.8134 36.9869 5.6316 -4.4790 12.6826 9.0121 -2.6933 -3.8454 -15.9419 -8.9849 -3.7177 30.0805 -7.7899 -31.4658 14.0748 -5.5232 -6.2507 -0.0000 -0.0000 0.0000 -76.0010 -5.8615 -6.0611 30.5439 -41.3551 -11.7674 -0.0000 0.0000 -44.7666 26.1283 11.7656 5.7116 -7.1250 0.0000 -0.0000 -0.9584 43.0389 0.0464 -0.0000 -0.0000 0.0000 77.0009 11.2534 -4.8589 -80.2793 59.6399 -51.5918 0.0000 -0.0000 -32.1440 -57.6735 41.4995 -46.3175 7.1250 -0.0000 -0.0000 -9.8091 28.2158 -13.4068
0.1339 13.5862 -3.2340 3.3110 -30.9641 8.6952 0.0000 0.0000 0.0000 7.6212 12.2123 -13.6699 7.2348 15.5264 49.7567 0.2250 -4.4464 -8.5232 7.5261 -15.7593 -50.8370 0.0000 0.0000 0.0000 -1.2947 -8.2417 -63.8796 -6.1445 -14.5669 45.5590 0.0094 -10.0468 -14.1568 -1.4286 7.5578 -21.3789 -2.9369 -3.0678 35.9142 5.2506 -4.8618 12.6855 8.7497 -2.8749 -3.4293 -16.4375 -8.9237 -3.8172 29.4710 -7.8823 -30.7368 13.7971 -5.4022 -6.0010 0.0000 -0.0000 0.0000 -77.5663 -4.8206 -6.7869 30.6730 -41.4633 -11.8527 -0.0000 0.0000 -45.1905 25.6499 11.8175 5.6165 -7.1250 0.0000 -0.0000 -1.3987 43.0426 0.0676 0.0000 -0.0000 0.0000 77.2641 12.2495 -4.5577 -75.0749 59.1413 -47.1118 0.0000 -0.0000 -32.2075 -57.7671 41.6304 -46.4947 7.1250 -0.0000 -0.0000 -9.7905 28.3999 -13.3932
-0.3675 13.6378 -3.0047 4.2856 -31.1873 7.6978 0.0000 0.0000 0.0000 7.8620 10.8539 -10.8003 6.7875 15.1503 48.0658 0.0448 -1.7166 -3.7686 7.5889 -15.8084 -51.0681 0.0000 0.0000 0.0000 -1.3994 -8.4519 -63.1784 -6.6508 -15.0307 47.5410 0.3692 -11.3005 -8.0642 -4.5728 12.8859 -38.9428 -3.1619 -3.2692 34.9831 4.8626 -5.1985 12.6237 8.5129 -3.0318 -3.1281 -16.4921 -8.7566 -3.5612 28.5649 -7.8774 -30.1426 13.3809 -5.2774 -5.9456 0.0000 -0.0000 0.0000 -79.1937 -3.5517 -7.8606 31.0864 -41.8066 -12.1274 -0.0000 0.0000 -45.8828 25.3184 12.0465 5.6389 -7.1250 0.0000 -0.0000 -1.7274 43.2564 0.0744 0.0000 -0.0000 0.0000 77.7056 13.2998 -4.3739 -69.9550 58.4260 -42.7322 0.0000 -0.0000 -32.2976 -57.5364 42.1095 -46.5067 7.1250 -0.0000 -0.0000 -9.4601 28.7065 -12.9526
-0.8667 13.7019 -2.7876 5.2439 -31.4368 6.6740 0.0000 0.0000 0.0000 7.6304 8.5157 -8.2582 6.5032 14.8988 46.9693 -0.0011 1.4855 0.9105 6.6840 -15.0599 -47.6689 0.0000 0.0000 0.0000 -2.0550 -8.2502 -62.6380 -7.4129 -15.6699 50.4191 0.2355 -9.7065 1.3146 -4.6651 12.9965 -39.3552 -3.5156 -3.4090 34.2628 4.4548 -5.4974 12.5411 8.3210 -3.1724 -2.9164 -16.3558 -8.5582 -3.1480 27.6944 -7.8187 -29.6942 12.9873 -5.1670 -5.9855 0.0000 -0.0000 0.0000 -80.8253 -2.3233 -9.2321 31.6471 -42.2640 -12.5028 -0.0000 0.0000 -46.6567 25.1827 12.3770 5.7550 -7.1250 0.0000 -0.0000 -1.8927 43.6023 0.0653 0.0000 -0.0000 0.0000 78.2218 14.3223 -3.9931 -65.9683 57.7012 -39.3486 0.0000 -0.0000 -33.3756 -56.2475 41.3354 -44.6647 7.1250 -0.0000 -0.0000 -9.2332 27.1646 -12.5374
-1.3520 13.6940 -2.5804 6.2598 -31.7433 5.6334 0.0000 0.0000 0.0000 7.3358 6.5008 -6.4960 6.4642 14.8636 46.8176 0.0368 3.6409 3.9798 6.1899 -14.6098 -45.7390 0.0000 0.0000 0.0000 -1.9285 -9.1742 -63.3449 -8.5722 -16.5244 54.5986 0.0944 -5.5742 -0.7476 -3.6192 11.6356 -34.4547 -3.8658 -3.4283 33.7371 3.9674 -5.6461 12.4159 8.0085 -3.2295 -2.8468 -16.4671 -8.4988 -3.4575 27.0894 -7.8644 -28.9384 12.6519 -5.0672 -5.7291 0.0000 0.0000 0.0000 -82.2191 -1.1034 -10.0710 32.3890 -42.8551 -13.0046 -0.0000 0.0000 -47.1658 25.4973 12.7907 6.0272 -7.1250 0.0000 -0.0000 -1.6583 44.0917 0.0372 0.0000 0.0000 0.0000 78.6053 15.2160 -3.9137 -62.1432 56.8545 -36.1300 0.0000 -0.0000 -34.5349 -55.7386 40.7632 -43.7877 7.1250 -0.0000 -0.0000 -9.2561 26.2961 -12.5087
-1.8243 13.6517 -2.3750 7.0306 -32.2164 4.7507 0.0000 0.0000 0.0000 7.1038 5.0798 -5.3347 6.6578 15.0368 47.5678 0.0307 4.9816 4.4378 6.5984 -14.9842 -47.3386 0.0000 0.0000 0.0000 -1.6496 -9.7965 -64.0780 -9.8204 -17.3076 58.8864 0.1190 -6.3621 -4.2336 -3.8718 11.9879 -35.6890 -4.0339 -3.3054 33.2434 3.5309 -5.5586 12.2696 7.5874 -3.1652 -2.8564 -16.6217 -8.6305 -3.5837 26.6138 -8.1738 -28.2687 12.3805 -5.1215 -5.4574 -0.0000 0.0000 0.0000 -83.5833 0.1800 -10.5033 33.3045 -43.5628 -13.6315 -0.0000 0.0000 -47.5331 25.8427 13.0409 6.2371 -7.1250 0.0000 -0.0000 -1.3728 44.4078 0.0201 -0.0000 0.0000 0.0000 78.8396 15.9107 -4.0555 -58.8924 56.0075 -33.4211 0.0000 -0.0000 -35.8792 -55.5410 40.3813 -43.3532 7.1250 -0.0000 -0.0000 -9.3327 25.8000 -12.5781
-2.2841 13.5909 -2.1710 7.3275 -32.8202 4.0639 0.0000 0.0000 0.0000 7.2364 4.3588 -4.6847 7.0825 15.4010 49.1858 -0.0105 4.0005 2.3350 7.4646 -15.7110 -50.6104 0.0000 0.0000 0.0000 -1.2188 -9.9965 -64.4912 -11.0642 -17.9664 62.9900 0.1335 -7.7425 -7.3695 -3.2848 11.1424 -32.7615 -3.7667 -3.1084 32.7244 3.1270 -5.2524 12.2383 6.9001 -2.9910 -2.7922 -16.2174 -8.8426 -3.0082 25.9188 -8.6388 -28.2793 12.0382 -5.3447 -5.5460 -0.0000 0.0000 0.0000 -84.7637 1.2215 -10.8911 34.1574 -44.2010 -14.2227 -0.0000 0.0000 -48.0853 25.7631 12.9280 6.1627 -7.1250 0.0000 -0.0000 -1.4315 44.2741 0.0257 -0.0000 0.0000 0.0000 79.0812 16.5784 -4.4595 -56.2233 55.2166 -31.2183 0.0000 -0.0000 -37.1004 -55.1271 40.1131 -42.7538 7.1250 -0.0000 -0.0000 -9.2564 25.2825 -12.4351
-2.7539 13.6340 -1.9668 7.0776 -33.2351 3.6183 0.0000 0.0000 0.0000 7.5430 4.1574 -4.9619 7.6884 15.8853 51.4326 -0.0589 4.9757 0.8499 7.2420 -15.5324 -49.7839 0.0000 0.0000 0.0000 -0.3307 -9.8868 -63.5656 -11.9581 -18.3729 65.8561 -0.0081 -6.1075 -8.9315 -2.1972 9.2653 -26.6289 -3.4873 -2.7960 32.4793 3.2717 -4.7726 12.1633 6.7549 -2.7501 -2.8556 -16.1961 -8.9890 -1.9629 25.2064 -9.0538 -28.6907 11.8509 -5.5284 -5.8403 -0.0000 0.0000 0.0000 -86.4537 2.2167 -11.0263 35.0536 -44.8504 -14.8512 -0.0000 0.0000 -48.5345 25.8828 12.8162 6.1431 -7.1250 0.0000 -0.0000 -1.3071 44.1659 0.0269 -0.0000 0.0000 0.0000 78.4530 17.1952 -4.9389 -53.7649 54.4055 -29.2090 0.0000 -0.0000 -38.1783 -54.9970 39.8001 -42.4295 7.1250 -0.0000 -0.0000 -9.3298 24.8919 -12.5058
-3.2113 13.6876 -1.7683 6.4432 -33.2090 3.4494 0.0000 0.0000 0.0000 8.1443 3.8960 -6.0905 8.4799 16.4611 54.2734 -0.1082 6.1579 -0.1131 6.6325 -15.0144 -47.4702 0.0000 0.0000 0.0000 1.0347 -10.2062 -62.2047 -12.6266 -18.6432 67.9616 -0.1409 -6.2712 -11.9778 -3.2620 11.1076 -32.6435 -2.6671 -2.8652 32.4045 3.2493 -4.6118 11.9961 6.2514 -2.6313 -3.0855 -16.5135 -8.9881 -1.0011 25.2876 -9.1535 -28.8001 12.0122 -5.5821 -5.9955 0.0000 0.0000 0.0000 -87.5843 3.4460 -11.0628 35.9071 -45.4491 -15.4563 -0.0000 0.0000 -48.7801 25.9110 12.9167 6.1977 -7.1250 0.0000 -0.0000 -1.2938 44.2797 0.0230 0.0000 0.0000 0.0000 78.2397 17.7027 -4.9488 -51.5686 53.6089 -27.4319 0.0000 -0.0000 -38.9130 -55.3490 39.7646 -42.7824 7.1250 -0.0000 -0.0000 -9.5100 25.0707 -12.7660
